<svg width="482" height="317" viewBox="0 0 482 317" fill="none" xmlns="http://www.w3.org/2000/svg">
<path d="M152 37L148 41V42L270.5 41.5V38L269 33.5L268 31L266 27.5L264 25L262.5 23L261 21.5L259 19.5L256 17L252 15.5L158.5 1H153L149 2L145.5 5.5L144.5 10L145.5 14L148 17.5L154 21.5L157.5 26.5L152 37Z" fill="#8D8D8D" stroke="#8D8D8D"/>
<path d="M301 63H458C471.255 63 482 73.7452 482 87V274C482 287.255 471.255 298 458 298H301V63Z" fill="black"/>
<path d="M310.5 44V63H342.5L341 58.5L333.5 58L332.5 54.5L328.5 53.5L327.5 50L324 49L323 45L320.5 44H310.5Z" fill="#8D8D8D" stroke="#8D8D8D"/>
<path d="M292 54H296C298.761 54 301 56.2386 301 59V297C301 299.761 298.761 302 296 302H292V54Z" fill="#8D8D8D"/>
<path d="M274 40H282C287.523 40 292 44.4772 292 50V306C292 311.523 287.523 316 282 316H274V40Z" fill="#8D8D8D"/>
<path d="M0 50C0 44.4772 4.47715 40 10 40H274V317H10C4.47715 317 0 312.523 0 307V50Z" fill="black"/>
<path d="M58.2955 193.364V186.659L78.0455 155.455H83.6364V165H80.2273L66.9318 186.068V186.432H94.5V193.364H58.2955ZM80.5 202V191.318L80.5909 188.318V155.455H88.5455V202H80.5ZM118.091 202V155.455H135.545C139.121 155.455 142.121 156.121 144.545 157.455C146.985 158.788 148.826 160.621 150.068 162.955C151.326 165.273 151.955 167.909 151.955 170.864C151.955 173.848 151.326 176.5 150.068 178.818C148.811 181.136 146.955 182.962 144.5 184.295C142.045 185.614 139.023 186.273 135.432 186.273H123.864V179.341H134.295C136.386 179.341 138.098 178.977 139.432 178.25C140.765 177.523 141.75 176.523 142.386 175.25C143.038 173.977 143.364 172.515 143.364 170.864C143.364 169.212 143.038 167.758 142.386 166.5C141.75 165.242 140.758 164.265 139.409 163.568C138.076 162.856 136.356 162.5 134.25 162.5H126.523V202H118.091ZM167.71 155.455V202H159.278V155.455H167.71ZM215.091 155.455V202H207.591L185.659 170.295H185.273V202H176.841V155.455H184.386L206.295 187.182H206.705V155.455H215.091Z" fill="white"/>
</svg>
