<svg width="150" height="50" viewBox="0 0 150 50" fill="none" xmlns="http://www.w3.org/2000/svg">
<g id="img_2">
<ellipse id="Ellipse 9" cx="11.0577" cy="25" rx="11.0577" ry="25" fill="black"/>
<path id="Rectangle 21" d="M10.2661 0H140C145.523 0 150 4.47715 150 10V40C150 45.5228 145.523 50 140 50H10.2661V0Z" fill="black"/>
<path id="2.5mm" d="M43.5511 33V30.7159L49.6108 24.7756C50.1903 24.1903 50.6733 23.6705 51.0597 23.2159C51.446 22.7614 51.7358 22.321 51.929 21.8949C52.1222 21.4687 52.2188 21.0142 52.2188 20.5312C52.2188 19.9801 52.0938 19.5085 51.8438 19.1165C51.5938 18.7188 51.25 18.4119 50.8125 18.196C50.375 17.9801 49.8778 17.8722 49.321 17.8722C48.7472 17.8722 48.2443 17.9915 47.8125 18.2301C47.3807 18.4631 47.0455 18.7955 46.8068 19.2273C46.5739 19.6591 46.4574 20.1733 46.4574 20.7699H43.4489C43.4489 19.6619 43.7017 18.6989 44.2074 17.8807C44.7131 17.0625 45.4091 16.429 46.2955 15.9801C47.1875 15.5312 48.2102 15.3068 49.3636 15.3068C50.5341 15.3068 51.5625 15.5256 52.4489 15.9631C53.3352 16.4006 54.0227 17 54.5114 17.7614C55.0057 18.5227 55.2528 19.392 55.2528 20.3693C55.2528 21.0227 55.1278 21.6648 54.8778 22.2955C54.6278 22.9261 54.1875 23.625 53.5568 24.392C52.9318 25.1591 52.054 26.0881 50.9233 27.179L47.9148 30.2386V30.358H55.517V33H43.5511ZM60.392 33.1875C59.875 33.1875 59.4318 33.0057 59.0625 32.642C58.6932 32.2784 58.5114 31.8352 58.517 31.3125C58.5114 30.8011 58.6932 30.3636 59.0625 30C59.4318 29.6364 59.875 29.4545 60.392 29.4545C60.892 29.4545 61.3267 29.6364 61.696 30C62.071 30.3636 62.2614 30.8011 62.267 31.3125C62.2614 31.6591 62.1705 31.9744 61.9943 32.2585C61.8239 32.5426 61.5966 32.7699 61.3125 32.9403C61.0341 33.1051 60.7273 33.1875 60.392 33.1875ZM71.2756 33.2386C70.1392 33.2386 69.1222 33.0256 68.2244 32.5994C67.3267 32.1676 66.6136 31.5767 66.0852 30.8267C65.5625 30.0767 65.2841 29.2187 65.25 28.2528H68.3182C68.375 28.9687 68.6847 29.554 69.2472 30.0085C69.8097 30.4574 70.4858 30.6818 71.2756 30.6818C71.8949 30.6818 72.446 30.5398 72.929 30.2557C73.4119 29.9716 73.7926 29.5767 74.071 29.071C74.3494 28.5653 74.4858 27.9886 74.4801 27.3409C74.4858 26.6818 74.3466 26.0966 74.0625 25.5852C73.7784 25.0739 73.3892 24.6733 72.8949 24.3835C72.4006 24.0881 71.8324 23.9403 71.1903 23.9403C70.6676 23.9347 70.1534 24.0312 69.6477 24.2301C69.142 24.429 68.7415 24.6903 68.446 25.0142L65.5909 24.5455L66.5028 15.5455H76.6278V18.1875H69.1193L68.6165 22.8153H68.7188C69.0426 22.4347 69.5 22.1193 70.0909 21.8693C70.6818 21.6136 71.3295 21.4858 72.0341 21.4858C73.0909 21.4858 74.0341 21.7358 74.8636 22.2358C75.6932 22.7301 76.3466 23.4119 76.8239 24.2812C77.3011 25.1506 77.5398 26.1449 77.5398 27.2642C77.5398 28.4176 77.2727 29.446 76.7386 30.3494C76.2102 31.2472 75.4744 31.9545 74.5312 32.4716C73.5938 32.983 72.5085 33.2386 71.2756 33.2386ZM80.429 33V19.9091H83.3778V22.1335H83.5312C83.804 21.3835 84.2557 20.7983 84.8864 20.3778C85.517 19.9517 86.2699 19.7386 87.1449 19.7386C88.0312 19.7386 88.7784 19.9545 89.3864 20.3864C90 20.8125 90.4318 21.3949 90.6818 22.1335H90.8182C91.108 21.4062 91.5966 20.8267 92.2841 20.3949C92.9773 19.9574 93.7983 19.7386 94.7472 19.7386C95.9517 19.7386 96.9347 20.1193 97.696 20.8807C98.4574 21.642 98.8381 22.7528 98.8381 24.2131V33H95.7443V24.6903C95.7443 23.8778 95.5284 23.2841 95.0966 22.9091C94.6648 22.5284 94.1364 22.3381 93.5114 22.3381C92.767 22.3381 92.1847 22.571 91.7642 23.0369C91.3494 23.4972 91.142 24.0966 91.142 24.8352V33H88.1165V24.5625C88.1165 23.8864 87.9119 23.3466 87.5028 22.9432C87.0994 22.5398 86.571 22.3381 85.9176 22.3381C85.4744 22.3381 85.071 22.4517 84.7074 22.679C84.3438 22.9006 84.054 23.2159 83.8381 23.625C83.6222 24.0284 83.5142 24.5 83.5142 25.0398V33H80.429ZM101.968 33V19.9091H104.917V22.1335H105.07C105.343 21.3835 105.795 20.7983 106.425 20.3778C107.056 19.9517 107.809 19.7386 108.684 19.7386C109.57 19.7386 110.317 19.9545 110.925 20.3864C111.539 20.8125 111.971 21.3949 112.221 22.1335H112.357C112.647 21.4062 113.136 20.8267 113.823 20.3949C114.516 19.9574 115.337 19.7386 116.286 19.7386C117.491 19.7386 118.474 20.1193 119.235 20.8807C119.996 21.642 120.377 22.7528 120.377 24.2131V33H117.283V24.6903C117.283 23.8778 117.067 23.2841 116.636 22.9091C116.204 22.5284 115.675 22.3381 115.05 22.3381C114.306 22.3381 113.724 22.571 113.303 23.0369C112.888 23.4972 112.681 24.0966 112.681 24.8352V33H109.656V24.5625C109.656 23.8864 109.451 23.3466 109.042 22.9432C108.638 22.5398 108.11 22.3381 107.457 22.3381C107.013 22.3381 106.61 22.4517 106.246 22.679C105.883 22.9006 105.593 23.2159 105.377 23.625C105.161 24.0284 105.053 24.5 105.053 25.0398V33H101.968Z" fill="white"/>
<g id="Ellipse 8" filter="url(#filter0_i_25_2)">
<ellipse cx="9.90323" cy="25" rx="7.49939" ry="21.6346" fill="#D9D9D9"/>
</g>
</g>
<defs>
<filter id="filter0_i_25_2" x="2.40384" y="3.36537" width="18.9988" height="43.2692" filterUnits="userSpaceOnUse" color-interpolation-filters="sRGB">
<feFlood flood-opacity="0" result="BackgroundImageFix"/>
<feBlend mode="normal" in="SourceGraphic" in2="BackgroundImageFix" result="shape"/>
<feColorMatrix in="SourceAlpha" type="matrix" values="0 0 0 0 0 0 0 0 0 0 0 0 0 0 0 0 0 0 127 0" result="hardAlpha"/>
<feMorphology radius="3" operator="erode" in="SourceAlpha" result="effect1_innerShadow_25_2"/>
<feOffset dx="4"/>
<feGaussianBlur stdDeviation="5"/>
<feComposite in2="hardAlpha" operator="arithmetic" k2="-1" k3="1"/>
<feColorMatrix type="matrix" values="0 0 0 0 0 0 0 0 0 0 0 0 0 0 0 0 0 0 0.25 0"/>
<feBlend mode="normal" in2="shape" result="effect1_innerShadow_25_2"/>
</filter>
</defs>
</svg>
