<svg width="440" height="277" viewBox="0 0 440 277" fill="none" xmlns="http://www.w3.org/2000/svg">
<ellipse cx="49" cy="138.5" rx="49" ry="138.5" fill="black"/>
<path d="M49 0H430C435.523 0 440 4.47715 440 10V267C440 272.523 435.523 277 430 277H49V0Z" fill="black"/>
<path d="M192.295 153.364V146.659L212.045 115.455H217.636V125H214.227L200.932 146.068V146.432H228.5V153.364H192.295ZM214.5 162V151.318L214.591 148.318V115.455H222.545V162H214.5ZM252.091 162V115.455H269.545C273.121 115.455 276.121 116.121 278.545 117.455C280.985 118.788 282.826 120.621 284.068 122.955C285.326 125.273 285.955 127.909 285.955 130.864C285.955 133.848 285.326 136.5 284.068 138.818C282.811 141.136 280.955 142.962 278.5 144.295C276.045 145.614 273.023 146.273 269.432 146.273H257.864V139.341H268.295C270.386 139.341 272.098 138.977 273.432 138.25C274.765 137.523 275.75 136.523 276.386 135.25C277.038 133.977 277.364 132.515 277.364 130.864C277.364 129.212 277.038 127.758 276.386 126.5C275.75 125.242 274.758 124.265 273.409 123.568C272.076 122.856 270.356 122.5 268.25 122.5H260.523V162H252.091ZM301.71 115.455V162H293.278V115.455H301.71ZM349.091 115.455V162H341.591L319.659 130.295H319.273V162H310.841V115.455H318.386L340.295 147.182H340.705V115.455H349.091Z" fill="white"/>
<ellipse cx="43.5" cy="139" rx="30.5" ry="120" fill="#D9D9D9"/>
</svg>
