<svg width="312" height="104" viewBox="0 0 312 104" fill="none" xmlns="http://www.w3.org/2000/svg">
<ellipse cx="23" cy="52" rx="23" ry="52" fill="black"/>
<path d="M21.3536 0H302C307.523 0 312 4.47715 312 10V94C312 99.5229 307.523 104 302 104H21.3536V0Z" fill="black"/>
<path d="M124.239 62.3977C122.847 62.3883 121.488 62.1468 120.162 61.6733C118.836 61.1903 117.643 60.4091 116.582 59.3295C115.522 58.2405 114.679 56.7964 114.054 54.9972C113.429 53.1884 113.121 50.9489 113.131 48.2784C113.131 45.7879 113.396 43.5672 113.926 41.6165C114.456 39.6657 115.219 38.018 116.213 36.6733C117.207 35.3191 118.405 34.2869 119.807 33.5767C121.218 32.8665 122.795 32.5114 124.537 32.5114C126.365 32.5114 127.984 32.8712 129.395 33.5909C130.815 34.3106 131.961 35.2955 132.832 36.5455C133.704 37.786 134.243 39.1875 134.452 40.75H129.267C129.002 39.6326 128.457 38.7424 127.634 38.0795C126.819 37.4072 125.787 37.071 124.537 37.071C122.52 37.071 120.967 37.947 119.878 39.6989C118.798 41.4508 118.254 43.8561 118.244 46.9148H118.443C118.907 46.0814 119.509 45.3665 120.247 44.7699C120.986 44.1733 121.819 43.714 122.747 43.392C123.685 43.0606 124.674 42.8949 125.716 42.8949C127.42 42.8949 128.95 43.3021 130.304 44.1165C131.668 44.9309 132.747 46.053 133.543 47.483C134.338 48.9034 134.731 50.5322 134.722 52.3693C134.731 54.2822 134.295 56.0009 133.415 57.5256C132.534 59.0407 131.308 60.2339 129.736 61.1051C128.164 61.9763 126.331 62.4072 124.239 62.3977ZM124.21 58.1364C125.242 58.1364 126.166 57.8854 126.98 57.3835C127.795 56.8816 128.438 56.2045 128.912 55.3523C129.385 54.5 129.617 53.5436 129.608 52.483C129.617 51.4413 129.39 50.4991 128.926 49.6562C128.472 48.8134 127.842 48.1458 127.037 47.6534C126.232 47.161 125.313 46.9148 124.281 46.9148C123.514 46.9148 122.799 47.0616 122.136 47.3551C121.473 47.6487 120.896 48.0559 120.403 48.5767C119.911 49.0881 119.523 49.6847 119.239 50.3665C118.964 51.0388 118.822 51.7585 118.812 52.5256C118.822 53.5388 119.059 54.4716 119.523 55.3239C119.987 56.1761 120.626 56.858 121.44 57.3693C122.255 57.8807 123.178 58.1364 124.21 58.1364ZM141.497 62.3125C140.635 62.3125 139.897 62.0095 139.281 61.4034C138.666 60.7973 138.363 60.0587 138.372 59.1875C138.363 58.3352 138.666 57.6061 139.281 57C139.897 56.3939 140.635 56.0909 141.497 56.0909C142.33 56.0909 143.055 56.3939 143.67 57C144.295 57.6061 144.613 58.3352 144.622 59.1875C144.613 59.7652 144.461 60.2907 144.168 60.7642C143.884 61.2377 143.505 61.6165 143.031 61.9006C142.567 62.1752 142.056 62.3125 141.497 62.3125ZM159.338 62.3977C157.293 62.3977 155.474 62.0473 153.884 61.3466C152.302 60.6458 151.052 59.6705 150.134 58.4205C149.215 57.1705 148.727 55.7263 148.67 54.0881H154.011C154.059 54.8741 154.319 55.5606 154.793 56.1477C155.266 56.7254 155.896 57.1752 156.682 57.4972C157.468 57.8191 158.348 57.9801 159.324 57.9801C160.366 57.9801 161.289 57.8002 162.094 57.4403C162.899 57.071 163.528 56.5597 163.983 55.9062C164.438 55.2528 164.66 54.5 164.651 53.6477C164.66 52.767 164.433 51.9905 163.969 51.3182C163.505 50.6458 162.832 50.1203 161.952 49.7415C161.08 49.3627 160.029 49.1733 158.798 49.1733H156.227V45.1108H158.798C159.812 45.1108 160.697 44.9356 161.455 44.5852C162.222 44.2348 162.823 43.7424 163.259 43.108C163.694 42.464 163.907 41.7206 163.898 40.8778C163.907 40.054 163.723 39.339 163.344 38.733C162.974 38.1174 162.449 37.6392 161.767 37.2983C161.095 36.9574 160.304 36.7869 159.395 36.7869C158.505 36.7869 157.681 36.9479 156.923 37.2699C156.166 37.5919 155.555 38.0511 155.091 38.6477C154.627 39.2348 154.381 39.9356 154.352 40.75H149.281C149.319 39.1212 149.788 37.6913 150.688 36.4602C151.597 35.2197 152.809 34.2538 154.324 33.5625C155.839 32.8617 157.539 32.5114 159.423 32.5114C161.365 32.5114 163.05 32.8759 164.48 33.6051C165.92 34.3248 167.032 35.2955 167.818 36.517C168.604 37.7386 168.997 39.0881 168.997 40.5653C169.007 42.2036 168.524 43.5767 167.548 44.6847C166.582 45.7926 165.313 46.517 163.741 46.858V47.0852C165.787 47.3693 167.354 48.1269 168.443 49.358C169.542 50.5795 170.086 52.0994 170.077 53.9176C170.077 55.5464 169.613 57.0047 168.685 58.2926C167.766 59.571 166.497 60.5748 164.878 61.304C163.268 62.0331 161.421 62.3977 159.338 62.3977ZM185.066 62.3977C183.172 62.3977 181.477 62.0426 179.981 61.3324C178.485 60.6127 177.296 59.6278 176.415 58.3778C175.544 57.1278 175.08 55.6979 175.023 54.0881H180.137C180.232 55.2812 180.748 56.2566 181.685 57.0142C182.623 57.7623 183.75 58.1364 185.066 58.1364C186.098 58.1364 187.017 57.8996 187.822 57.4261C188.627 56.9527 189.261 56.2945 189.725 55.4517C190.189 54.6089 190.416 53.6477 190.407 52.5682C190.416 51.4697 190.184 50.4943 189.711 49.642C189.237 48.7898 188.589 48.1222 187.765 47.6392C186.941 47.1468 185.994 46.9006 184.924 46.9006C184.053 46.8911 183.196 47.0521 182.353 47.3835C181.51 47.715 180.843 48.1506 180.35 48.6903L175.592 47.9091L177.112 32.9091H193.987V37.3125H181.472L180.634 45.0256H180.805C181.344 44.3911 182.107 43.8655 183.092 43.4489C184.076 43.0227 185.156 42.8097 186.33 42.8097C188.092 42.8097 189.664 43.2263 191.046 44.0597C192.429 44.8835 193.518 46.0199 194.313 47.4688C195.109 48.9176 195.506 50.5748 195.506 52.4403C195.506 54.3627 195.061 56.0767 194.171 57.5824C193.29 59.0786 192.064 60.2576 190.492 61.1193C188.93 61.9716 187.121 62.3977 185.066 62.3977ZM200.322 62V40.1818H205.237V43.8892H205.492C205.947 42.6392 206.7 41.6638 207.751 40.9631C208.802 40.2528 210.057 39.8977 211.515 39.8977C212.992 39.8977 214.237 40.2576 215.251 40.9773C216.273 41.6875 216.993 42.6581 217.41 43.8892H217.637C218.12 42.6771 218.934 41.7112 220.08 40.9915C221.236 40.2623 222.604 39.8977 224.185 39.8977C226.193 39.8977 227.831 40.5322 229.1 41.8011C230.369 43.0701 231.004 44.9214 231.004 47.3551V62H225.847V48.1506C225.847 46.7964 225.487 45.8068 224.768 45.1818C224.048 44.5473 223.167 44.2301 222.126 44.2301C220.885 44.2301 219.915 44.6184 219.214 45.3949C218.522 46.1619 218.177 47.161 218.177 48.392V62H213.134V47.9375C213.134 46.8106 212.793 45.911 212.112 45.2386C211.439 44.5663 210.558 44.2301 209.469 44.2301C208.731 44.2301 208.058 44.4195 207.452 44.7983C206.846 45.1676 206.363 45.6932 206.004 46.375C205.644 47.0473 205.464 47.8333 205.464 48.733V62H200.322ZM236.22 62V40.1818H241.135V43.8892H241.391C241.845 42.6392 242.598 41.6638 243.649 40.9631C244.7 40.2528 245.955 39.8977 247.413 39.8977C248.891 39.8977 250.136 40.2576 251.149 40.9773C252.172 41.6875 252.892 42.6581 253.308 43.8892H253.536C254.018 42.6771 254.833 41.7112 255.979 40.9915C257.134 40.2623 258.502 39.8977 260.084 39.8977C262.091 39.8977 263.73 40.5322 264.999 41.8011C266.268 43.0701 266.902 44.9214 266.902 47.3551V62H261.746V48.1506C261.746 46.7964 261.386 45.8068 260.666 45.1818C259.946 44.5473 259.066 44.2301 258.024 44.2301C256.784 44.2301 255.813 44.6184 255.112 45.3949C254.421 46.1619 254.075 47.161 254.075 48.392V62H249.033V47.9375C249.033 46.8106 248.692 45.911 248.01 45.2386C247.338 44.5663 246.457 44.2301 245.368 44.2301C244.629 44.2301 243.957 44.4195 243.351 44.7983C242.745 45.1676 242.262 45.6932 241.902 46.375C241.542 47.0473 241.362 47.8333 241.362 48.733V62H236.22Z" fill="white"/>
<g filter="url(#filter0_i_23_16)">
<ellipse cx="20.5987" cy="52" rx="15.5987" ry="45" fill="#D9D9D9"/>
</g>
<defs>
<filter id="filter0_i_23_16" x="5" y="7" width="35.1974" height="90" filterUnits="userSpaceOnUse" color-interpolation-filters="sRGB">
<feFlood flood-opacity="0" result="BackgroundImageFix"/>
<feBlend mode="normal" in="SourceGraphic" in2="BackgroundImageFix" result="shape"/>
<feColorMatrix in="SourceAlpha" type="matrix" values="0 0 0 0 0 0 0 0 0 0 0 0 0 0 0 0 0 0 127 0" result="hardAlpha"/>
<feMorphology radius="3" operator="erode" in="SourceAlpha" result="effect1_innerShadow_23_16"/>
<feOffset dx="4"/>
<feGaussianBlur stdDeviation="5"/>
<feComposite in2="hardAlpha" operator="arithmetic" k2="-1" k3="1"/>
<feColorMatrix type="matrix" values="0 0 0 0 0 0 0 0 0 0 0 0 0 0 0 0 0 0 0.25 0"/>
<feBlend mode="normal" in2="shape" result="effect1_innerShadow_23_16"/>
</filter>
</defs>
</svg>
