<svg width="482" height="317" viewBox="0 0 482 317" fill="none" xmlns="http://www.w3.org/2000/svg">
<path d="M152 37L148 41V42L270.5 41.5V38L269 33.5L268 31L266 27.5L264 25L262.5 23L261 21.5L259 19.5L256 17L252 15.5L158.5 1H153L149 2L145.5 5.5L144.5 10L145.5 14L148 17.5L154 21.5L157.5 26.5L152 37Z" fill="#8D8D8D" stroke="#8D8D8D"/>
<path d="M301 63H458C471.255 63 482 73.7452 482 87V274C482 287.255 471.255 298 458 298H301V63Z" fill="black"/>
<path d="M310.5 44V63H342.5L341 58.5L333.5 58L332.5 54.5L328.5 53.5L327.5 50L324 49L323 45L320.5 44H310.5Z" fill="#8D8D8D" stroke="#8D8D8D"/>
<path d="M292 54H296C298.761 54 301 56.2386 301 59V297C301 299.761 298.761 302 296 302H292V54Z" fill="#8D8D8D"/>
<path d="M274 40H282C287.523 40 292 44.4772 292 50V306C292 311.523 287.523 316 282 316H274V40Z" fill="#8D8D8D"/>
<path d="M0 50C0 44.4772 4.47715 40 10 40H274V317H10C4.47715 317 0 312.523 0 307V50Z" fill="black"/>
<path d="M75.8409 202.636C72.5682 202.636 69.6591 202.076 67.1136 200.955C64.5833 199.833 62.5833 198.273 61.1136 196.273C59.6439 194.273 58.8636 191.962 58.7727 189.341H67.3182C67.3939 190.598 67.8106 191.697 68.5682 192.636C69.3258 193.561 70.3333 194.28 71.5909 194.795C72.8485 195.311 74.2576 195.568 75.8182 195.568C77.4848 195.568 78.9621 195.28 80.25 194.705C81.5379 194.114 82.5455 193.295 83.2727 192.25C84 191.205 84.3561 190 84.3409 188.636C84.3561 187.227 83.9924 185.985 83.25 184.909C82.5076 183.833 81.4318 182.992 80.0227 182.386C78.6288 181.78 76.947 181.477 74.9773 181.477H70.8636V174.977H74.9773C76.5985 174.977 78.0152 174.697 79.2273 174.136C80.4545 173.576 81.4167 172.788 82.1136 171.773C82.8106 170.742 83.1515 169.553 83.1364 168.205C83.1515 166.886 82.8561 165.742 82.25 164.773C81.6591 163.788 80.8182 163.023 79.7273 162.477C78.6515 161.932 77.3864 161.659 75.9318 161.659C74.5076 161.659 73.1894 161.917 71.9773 162.432C70.7652 162.947 69.7879 163.682 69.0455 164.636C68.303 165.576 67.9091 166.697 67.8636 168H59.75C59.8106 165.394 60.5606 163.106 62 161.136C63.4545 159.152 65.3939 157.606 67.8182 156.5C70.2424 155.379 72.9621 154.818 75.9773 154.818C79.0833 154.818 81.7803 155.402 84.0682 156.568C86.3712 157.72 88.1515 159.273 89.4091 161.227C90.6667 163.182 91.2955 165.341 91.2955 167.705C91.3106 170.326 90.5379 172.523 88.9773 174.295C87.4318 176.068 85.4015 177.227 82.8864 177.773V178.136C86.1591 178.591 88.6667 179.803 90.4091 181.773C92.1667 183.727 93.0379 186.159 93.0227 189.068C93.0227 191.674 92.2803 194.008 90.7955 196.068C89.3258 198.114 87.2955 199.72 84.7045 200.886C82.1288 202.053 79.1742 202.636 75.8409 202.636ZM117.153 202V155.455H134.608C138.184 155.455 141.184 156.121 143.608 157.455C146.047 158.788 147.888 160.621 149.131 162.955C150.388 165.273 151.017 167.909 151.017 170.864C151.017 173.848 150.388 176.5 149.131 178.818C147.873 181.136 146.017 182.962 143.562 184.295C141.108 185.614 138.085 186.273 134.494 186.273H122.926V179.341H133.358C135.449 179.341 137.161 178.977 138.494 178.25C139.828 177.523 140.813 176.523 141.449 175.25C142.1 173.977 142.426 172.515 142.426 170.864C142.426 169.212 142.1 167.758 141.449 166.5C140.813 165.242 139.82 164.265 138.472 163.568C137.138 162.856 135.419 162.5 133.312 162.5H125.585V202H117.153ZM166.773 155.455V202H158.341V155.455H166.773ZM214.153 155.455V202H206.653L184.722 170.295H184.335V202H175.903V155.455H183.449L205.358 187.182H205.767V155.455H214.153Z" fill="white"/>
</svg>
