<svg width="270" height="90" viewBox="0 0 270 90" fill="none" xmlns="http://www.w3.org/2000/svg">
<ellipse cx="19.9038" cy="45" rx="19.9038" ry="45" fill="black"/>
<path d="M18.4791 0H260C265.523 0 270 4.47715 270 10V80C270 85.5229 265.523 90 260 90H18.4791V0Z" fill="black"/>
<path d="M83.8537 52.142V48.3707L94.9631 30.8182H98.108V36.1875H96.1903L88.7116 48.0384V48.2429H104.219V52.142H83.8537ZM96.3438 57V50.9915L96.3949 49.304V30.8182H100.869V57H96.3438ZM110.467 57.2812C109.691 57.2812 109.027 57.0085 108.473 56.4631C107.919 55.9176 107.646 55.2528 107.654 54.4688C107.646 53.7017 107.919 53.0455 108.473 52.5C109.027 51.9545 109.691 51.6818 110.467 51.6818C111.217 51.6818 111.869 51.9545 112.423 52.5C112.985 53.0455 113.271 53.7017 113.279 54.4688C113.271 54.9886 113.135 55.4616 112.87 55.8878C112.615 56.3139 112.274 56.6548 111.848 56.9105C111.43 57.1577 110.97 57.2812 110.467 57.2812ZM117.533 52.142V48.3707L128.643 30.8182H131.788V36.1875H129.87L122.391 48.0384V48.2429H137.898V52.142H117.533ZM130.023 57V50.9915L130.075 49.304V30.8182H134.549V57H130.023ZM142.034 57V37.3636H146.457V40.7003H146.688C147.097 39.5753 147.774 38.6974 148.72 38.0668C149.666 37.4276 150.795 37.108 152.108 37.108C153.438 37.108 154.558 37.4318 155.47 38.0795C156.391 38.7187 157.038 39.5923 157.413 40.7003H157.618C158.053 39.6094 158.786 38.7401 159.817 38.0923C160.857 37.4361 162.088 37.108 163.511 37.108C165.318 37.108 166.793 37.679 167.935 38.821C169.077 39.9631 169.648 41.6293 169.648 43.8196V57H165.007V44.5355C165.007 43.3168 164.683 42.4261 164.036 41.8636C163.388 41.2926 162.595 41.0071 161.658 41.0071C160.541 41.0071 159.668 41.3565 159.037 42.0554C158.415 42.7457 158.104 43.6449 158.104 44.7528V57H153.565V44.3438C153.565 43.3295 153.259 42.5199 152.645 41.9148C152.04 41.3097 151.247 41.0071 150.267 41.0071C149.602 41.0071 148.997 41.1776 148.452 41.5185C147.906 41.8509 147.472 42.3239 147.148 42.9375C146.824 43.5426 146.662 44.25 146.662 45.0597V57H142.034ZM174.343 57V37.3636H178.766V40.7003H178.996C179.405 39.5753 180.083 38.6974 181.029 38.0668C181.975 37.4276 183.104 37.108 184.417 37.108C185.746 37.108 186.867 37.4318 187.779 38.0795C188.699 38.7187 189.347 39.5923 189.722 40.7003H189.926C190.361 39.6094 191.094 38.7401 192.125 38.0923C193.165 37.4361 194.397 37.108 195.82 37.108C197.627 37.108 199.101 37.679 200.243 38.821C201.385 39.9631 201.956 41.6293 201.956 43.8196V57H197.316V44.5355C197.316 43.3168 196.992 42.4261 196.344 41.8636C195.696 41.2926 194.904 41.0071 193.966 41.0071C192.85 41.0071 191.976 41.3565 191.346 42.0554C190.723 42.7457 190.412 43.6449 190.412 44.7528V57H185.874V44.3438C185.874 43.3295 185.567 42.5199 184.953 41.9148C184.348 41.3097 183.556 41.0071 182.576 41.0071C181.911 41.0071 181.306 41.1776 180.76 41.5185C180.215 41.8509 179.78 42.3239 179.456 42.9375C179.132 43.5426 178.971 44.25 178.971 45.0597V57H174.343Z" fill="white"/>
<g filter="url(#filter0_i_23_21)">
<ellipse cx="17.8258" cy="45" rx="13.4989" ry="38.9423" fill="#D9D9D9"/>
</g>
<defs>
<filter id="filter0_i_23_21" x="4.32693" y="6.05768" width="30.9978" height="77.8846" filterUnits="userSpaceOnUse" color-interpolation-filters="sRGB">
<feFlood flood-opacity="0" result="BackgroundImageFix"/>
<feBlend mode="normal" in="SourceGraphic" in2="BackgroundImageFix" result="shape"/>
<feColorMatrix in="SourceAlpha" type="matrix" values="0 0 0 0 0 0 0 0 0 0 0 0 0 0 0 0 0 0 127 0" result="hardAlpha"/>
<feMorphology radius="3" operator="erode" in="SourceAlpha" result="effect1_innerShadow_23_21"/>
<feOffset dx="4"/>
<feGaussianBlur stdDeviation="5"/>
<feComposite in2="hardAlpha" operator="arithmetic" k2="-1" k3="1"/>
<feColorMatrix type="matrix" values="0 0 0 0 0 0 0 0 0 0 0 0 0 0 0 0 0 0 0.25 0"/>
<feBlend mode="normal" in2="shape" result="effect1_innerShadow_23_21"/>
</filter>
</defs>
</svg>
