<svg width="440" height="277" viewBox="0 0 440 277" fill="none" xmlns="http://www.w3.org/2000/svg">
<ellipse cx="49" cy="138.5" rx="49" ry="138.5" fill="black"/>
<path d="M49 0H430C435.523 0 440 4.47715 440 10V267C440 272.523 435.523 277 430 277H49V0Z" fill="black"/>
<path d="M209.841 162.636C206.568 162.636 203.659 162.076 201.114 160.955C198.583 159.833 196.583 158.273 195.114 156.273C193.644 154.273 192.864 151.962 192.773 149.341H201.318C201.394 150.598 201.811 151.697 202.568 152.636C203.326 153.561 204.333 154.28 205.591 154.795C206.848 155.311 208.258 155.568 209.818 155.568C211.485 155.568 212.962 155.28 214.25 154.705C215.538 154.114 216.545 153.295 217.273 152.25C218 151.205 218.356 150 218.341 148.636C218.356 147.227 217.992 145.985 217.25 144.909C216.508 143.833 215.432 142.992 214.023 142.386C212.629 141.78 210.947 141.477 208.977 141.477H204.864V134.977H208.977C210.598 134.977 212.015 134.697 213.227 134.136C214.455 133.576 215.417 132.788 216.114 131.773C216.811 130.742 217.152 129.553 217.136 128.205C217.152 126.886 216.856 125.742 216.25 124.773C215.659 123.788 214.818 123.023 213.727 122.477C212.652 121.932 211.386 121.659 209.932 121.659C208.508 121.659 207.189 121.917 205.977 122.432C204.765 122.947 203.788 123.682 203.045 124.636C202.303 125.576 201.909 126.697 201.864 128H193.75C193.811 125.394 194.561 123.106 196 121.136C197.455 119.152 199.394 117.606 201.818 116.5C204.242 115.379 206.962 114.818 209.977 114.818C213.083 114.818 215.78 115.402 218.068 116.568C220.371 117.72 222.152 119.273 223.409 121.227C224.667 123.182 225.295 125.341 225.295 127.705C225.311 130.326 224.538 132.523 222.977 134.295C221.432 136.068 219.402 137.227 216.886 137.773V138.136C220.159 138.591 222.667 139.803 224.409 141.773C226.167 143.727 227.038 146.159 227.023 149.068C227.023 151.674 226.28 154.008 224.795 156.068C223.326 158.114 221.295 159.72 218.705 160.886C216.129 162.053 213.174 162.636 209.841 162.636ZM251.153 162V115.455H268.608C272.184 115.455 275.184 116.121 277.608 117.455C280.047 118.788 281.888 120.621 283.131 122.955C284.388 125.273 285.017 127.909 285.017 130.864C285.017 133.848 284.388 136.5 283.131 138.818C281.873 141.136 280.017 142.962 277.562 144.295C275.108 145.614 272.085 146.273 268.494 146.273H256.926V139.341H267.358C269.449 139.341 271.161 138.977 272.494 138.25C273.828 137.523 274.813 136.523 275.449 135.25C276.1 133.977 276.426 132.515 276.426 130.864C276.426 129.212 276.1 127.758 275.449 126.5C274.813 125.242 273.82 124.265 272.472 123.568C271.138 122.856 269.419 122.5 267.312 122.5H259.585V162H251.153ZM300.773 115.455V162H292.341V115.455H300.773ZM348.153 115.455V162H340.653L318.722 130.295H318.335V162H309.903V115.455H317.449L339.358 147.182H339.767V115.455H348.153Z" fill="white"/>
<g filter="url(#filter0_i_20_2)">
<ellipse cx="43.5" cy="139" rx="30.5" ry="120" fill="#D9D9D9"/>
</g>
<defs>
<filter id="filter0_i_20_2" x="13" y="19" width="65" height="240" filterUnits="userSpaceOnUse" color-interpolation-filters="sRGB">
<feFlood flood-opacity="0" result="BackgroundImageFix"/>
<feBlend mode="normal" in="SourceGraphic" in2="BackgroundImageFix" result="shape"/>
<feColorMatrix in="SourceAlpha" type="matrix" values="0 0 0 0 0 0 0 0 0 0 0 0 0 0 0 0 0 0 127 0" result="hardAlpha"/>
<feMorphology radius="5" operator="erode" in="SourceAlpha" result="effect1_innerShadow_20_2"/>
<feOffset dx="4"/>
<feGaussianBlur stdDeviation="5"/>
<feComposite in2="hardAlpha" operator="arithmetic" k2="-1" k3="1"/>
<feColorMatrix type="matrix" values="0 0 0 0 0 0 0 0 0 0 0 0 0 0 0 0 0 0 0.25 0"/>
<feBlend mode="normal" in2="shape" result="effect1_innerShadow_20_2"/>
</filter>
</defs>
</svg>
