<svg width="306" height="349" viewBox="0 0 306 349" fill="none" xmlns="http://www.w3.org/2000/svg">
<circle cx="157" cy="174.5" r="100" fill="black"/>
<path d="M125 138.5V74H189V138.5H125Z" fill="#8D8D8D" stroke="#8D8D8D"/>
<circle cx="97" cy="172.5" r="18" fill="#8D8D8D"/>
<circle cx="157" cy="227.5" r="18" fill="#8D8D8D"/>
<circle cx="214" cy="172.5" r="18" fill="#8D8D8D"/>
<path d="M34.4432 46V11.0909H56.8068V16.392H40.767V25.8693H55.2727V31.1705H40.767V46H34.4432ZM61.9205 46V19.8182H67.9034V24.1818H68.1761C68.6534 22.6705 69.4716 21.5057 70.6307 20.6875C71.8011 19.858 73.1364 19.4432 74.6364 19.4432C74.9773 19.4432 75.358 19.4602 75.7784 19.4943C76.2102 19.517 76.5682 19.5568 76.8523 19.6136V25.2898C76.5909 25.1989 76.1761 25.1193 75.608 25.0511C75.0511 24.9716 74.5114 24.9318 73.9886 24.9318C72.8636 24.9318 71.8523 25.1761 70.9545 25.6648C70.0682 26.142 69.3693 26.8068 68.858 27.6591C68.3466 28.5114 68.0909 29.4943 68.0909 30.608V46H61.9205ZM91.294 46.5114C88.7372 46.5114 86.5213 45.9489 84.6463 44.8239C82.7713 43.6989 81.3168 42.125 80.2827 40.1023C79.2599 38.0795 78.7486 35.7159 78.7486 33.0114C78.7486 30.3068 79.2599 27.9375 80.2827 25.9034C81.3168 23.8693 82.7713 22.2898 84.6463 21.1648C86.5213 20.0398 88.7372 19.4773 91.294 19.4773C93.8509 19.4773 96.0668 20.0398 97.9418 21.1648C99.8168 22.2898 101.266 23.8693 102.288 25.9034C103.322 27.9375 103.839 30.3068 103.839 33.0114C103.839 35.7159 103.322 38.0795 102.288 40.1023C101.266 42.125 99.8168 43.6989 97.9418 44.8239C96.0668 45.9489 93.8509 46.5114 91.294 46.5114ZM91.3281 41.5682C92.7145 41.5682 93.8736 41.1875 94.8054 40.4261C95.7372 39.6534 96.4304 38.6193 96.8849 37.3239C97.3509 36.0284 97.5838 34.5852 97.5838 32.9943C97.5838 31.392 97.3509 29.9432 96.8849 28.6477C96.4304 27.3409 95.7372 26.3011 94.8054 25.5284C93.8736 24.7557 92.7145 24.3693 91.3281 24.3693C89.9077 24.3693 88.7259 24.7557 87.7827 25.5284C86.8509 26.3011 86.152 27.3409 85.6861 28.6477C85.2315 29.9432 85.0043 31.392 85.0043 32.9943C85.0043 34.5852 85.2315 36.0284 85.6861 37.3239C86.152 38.6193 86.8509 39.6534 87.7827 40.4261C88.7259 41.1875 89.9077 41.5682 91.3281 41.5682ZM115.247 30.6591V46H109.077V19.8182H114.974V24.267H115.281C115.884 22.8011 116.844 21.6364 118.162 20.7727C119.491 19.9091 121.134 19.4773 123.088 19.4773C124.895 19.4773 126.469 19.8636 127.81 20.6364C129.162 21.4091 130.207 22.5284 130.946 23.9943C131.696 25.4602 132.065 27.2386 132.054 29.3295V46H125.884V30.2841C125.884 28.5341 125.429 27.1648 124.52 26.1761C123.622 25.1875 122.378 24.6932 120.787 24.6932C119.707 24.6932 118.747 24.9318 117.906 25.4091C117.077 25.875 116.423 26.5511 115.946 27.4375C115.48 28.3239 115.247 29.3977 115.247 30.6591ZM151.401 19.8182V24.5909H136.349V19.8182H151.401ZM140.065 13.5455H146.236V38.125C146.236 38.9545 146.361 39.5909 146.611 40.0341C146.872 40.4659 147.213 40.7614 147.634 40.9205C148.054 41.0795 148.52 41.1591 149.031 41.1591C149.418 41.1591 149.77 41.1307 150.088 41.0739C150.418 41.017 150.668 40.9659 150.838 40.9205L151.878 45.7443C151.548 45.858 151.077 45.983 150.463 46.1193C149.861 46.2557 149.122 46.3352 148.247 46.358C146.702 46.4034 145.31 46.1705 144.071 45.6591C142.832 45.1364 141.849 44.3295 141.122 43.2386C140.406 42.1477 140.054 40.7841 140.065 39.1477V13.5455ZM173.411 11.0909L182.496 38.5682H182.854L191.922 11.0909H198.876L186.57 46H178.763L166.473 11.0909H173.411ZM203.202 46V19.8182H209.372V46H203.202ZM206.304 16.1023C205.327 16.1023 204.486 15.7784 203.781 15.1307C203.077 14.4716 202.724 13.6818 202.724 12.7614C202.724 11.8295 203.077 11.0398 203.781 10.392C204.486 9.73295 205.327 9.40341 206.304 9.40341C207.293 9.40341 208.134 9.73295 208.827 10.392C209.531 11.0398 209.884 11.8295 209.884 12.7614C209.884 13.6818 209.531 14.4716 208.827 15.1307C208.134 15.7784 207.293 16.1023 206.304 16.1023ZM227.308 46.5114C224.683 46.5114 222.416 45.9659 220.507 44.875C218.609 43.7727 217.149 42.2159 216.126 40.2045C215.104 38.1818 214.592 35.8011 214.592 33.0625C214.592 30.3693 215.104 28.0057 216.126 25.9716C217.161 23.9261 218.604 22.3352 220.456 21.1989C222.308 20.0511 224.484 19.4773 226.984 19.4773C228.598 19.4773 230.121 19.7386 231.553 20.2614C232.996 20.7727 234.268 21.5682 235.371 22.6477C236.484 23.7273 237.359 25.1023 237.996 26.7727C238.632 28.4318 238.95 30.4091 238.95 32.7045V34.5966H217.49V30.4375H233.036C233.024 29.2557 232.768 28.2045 232.268 27.2841C231.768 26.3523 231.07 25.6193 230.172 25.0852C229.286 24.5511 228.251 24.2841 227.07 24.2841C225.808 24.2841 224.7 24.5909 223.746 25.2045C222.791 25.8068 222.047 26.6023 221.513 27.5909C220.99 28.5682 220.723 29.642 220.712 30.8125V34.4432C220.712 35.9659 220.99 37.2727 221.547 38.3636C222.104 39.4432 222.882 40.2727 223.882 40.8523C224.882 41.4205 226.053 41.7045 227.393 41.7045C228.291 41.7045 229.104 41.5795 229.831 41.3295C230.558 41.0682 231.189 40.6875 231.723 40.1875C232.257 39.6875 232.661 39.0682 232.933 38.3295L238.695 38.9773C238.331 40.5 237.638 41.8295 236.615 42.9659C235.604 44.0909 234.308 44.9659 232.729 45.5909C231.149 46.2045 229.342 46.5114 227.308 46.5114ZM249.433 46L242.036 19.8182H248.325L252.928 38.2273H253.166L257.871 19.8182H264.092L268.797 38.125H269.053L273.587 19.8182H279.893L272.479 46H266.053L261.143 28.3068H260.786L255.876 46H249.433Z" fill="black"/>
<path d="M299.301 155.091V190H292.977V161.244H292.773L284.608 166.46V160.665L293.284 155.091H299.301Z" fill="black"/>
<path d="M145.102 337V332.432L157.222 320.551C158.381 319.381 159.347 318.341 160.119 317.432C160.892 316.523 161.472 315.642 161.858 314.79C162.244 313.937 162.438 313.028 162.438 312.062C162.438 310.96 162.188 310.017 161.688 309.233C161.188 308.438 160.5 307.824 159.625 307.392C158.75 306.96 157.756 306.744 156.642 306.744C155.494 306.744 154.489 306.983 153.625 307.46C152.761 307.926 152.091 308.591 151.614 309.455C151.148 310.318 150.915 311.347 150.915 312.54H144.898C144.898 310.324 145.403 308.398 146.415 306.761C147.426 305.125 148.818 303.858 150.591 302.96C152.375 302.062 154.42 301.614 156.727 301.614C159.068 301.614 161.125 302.051 162.898 302.926C164.67 303.801 166.045 305 167.023 306.523C168.011 308.045 168.506 309.784 168.506 311.739C168.506 313.045 168.256 314.33 167.756 315.591C167.256 316.852 166.375 318.25 165.114 319.784C163.864 321.318 162.108 323.176 159.847 325.358L153.83 331.477V331.716H169.034V337H145.102Z" fill="black"/>
<path d="M15.6307 190.477C13.1761 190.477 10.9943 190.057 9.08523 189.216C7.1875 188.375 5.6875 187.205 4.58523 185.705C3.48295 184.205 2.89773 182.472 2.82955 180.506H9.23864C9.29545 181.449 9.60795 182.273 10.1761 182.977C10.7443 183.67 11.5 184.21 12.4432 184.597C13.3864 184.983 14.4432 185.176 15.6136 185.176C16.8636 185.176 17.9716 184.96 18.9375 184.528C19.9034 184.085 20.6591 183.472 21.2045 182.688C21.75 181.903 22.017 181 22.0057 179.977C22.017 178.92 21.7443 177.989 21.1875 177.182C20.6307 176.375 19.8239 175.744 18.767 175.29C17.7216 174.835 16.4602 174.608 14.983 174.608H11.8977V169.733H14.983C16.1989 169.733 17.2614 169.523 18.1705 169.102C19.0909 168.682 19.8125 168.091 20.3352 167.33C20.858 166.557 21.1136 165.665 21.1023 164.653C21.1136 163.665 20.892 162.807 20.4375 162.08C19.9943 161.341 19.3636 160.767 18.5455 160.358C17.7386 159.949 16.7898 159.744 15.6989 159.744C14.6307 159.744 13.642 159.937 12.733 160.324C11.8239 160.71 11.0909 161.261 10.5341 161.977C9.97727 162.682 9.68182 163.523 9.64773 164.5H3.5625C3.60795 162.545 4.17045 160.83 5.25 159.352C6.34091 157.864 7.79545 156.705 9.61364 155.875C11.4318 155.034 13.4716 154.614 15.733 154.614C18.0625 154.614 20.0852 155.051 21.8011 155.926C23.5284 156.79 24.8636 157.955 25.8068 159.42C26.75 160.886 27.2216 162.506 27.2216 164.278C27.233 166.244 26.6534 167.892 25.483 169.222C24.3239 170.551 22.8011 171.42 20.9148 171.83V172.102C23.3693 172.443 25.25 173.352 26.5568 174.83C27.875 176.295 28.5284 178.119 28.517 180.301C28.517 182.256 27.9602 184.006 26.8466 185.551C25.7443 187.085 24.2216 188.29 22.2784 189.165C20.3466 190.04 18.1307 190.477 15.6307 190.477Z" fill="black"/>
<path d="M215.5 173H270.5M157.5 228.5V291.5M99 173H43.5" stroke="#FF0000" stroke-width="5"/>
</svg>
