<svg width="195" height="65" viewBox="0 0 195 65" fill="none" xmlns="http://www.w3.org/2000/svg">
<ellipse cx="14.375" cy="32.5" rx="14.375" ry="32.5" fill="black"/>
<path d="M13.346 0H185C190.523 0 195 4.47715 195 10V55C195 60.5228 190.523 65 185 65H13.346V0Z" fill="black"/>
<path d="M64.4205 41.3182C62.7841 41.3182 61.3295 41.0379 60.0568 40.4773C58.7917 39.9167 57.7917 39.1364 57.0568 38.1364C56.322 37.1364 55.9318 35.9811 55.8864 34.6705H60.1591C60.197 35.2992 60.4053 35.8485 60.7841 36.3182C61.1629 36.7803 61.6667 37.1402 62.2955 37.3977C62.9242 37.6553 63.6288 37.7841 64.4091 37.7841C65.2424 37.7841 65.9811 37.6402 66.625 37.3523C67.2689 37.0568 67.7727 36.6477 68.1364 36.125C68.5 35.6023 68.678 35 68.6705 34.3182C68.678 33.6136 68.4962 32.9924 68.125 32.4545C67.7538 31.9167 67.2159 31.4962 66.5114 31.1932C65.8144 30.8902 64.9735 30.7386 63.9886 30.7386H61.9318V27.4886H63.9886C64.7992 27.4886 65.5076 27.3485 66.1136 27.0682C66.7273 26.7879 67.2083 26.3939 67.5568 25.8864C67.9053 25.3712 68.0758 24.7765 68.0682 24.1023C68.0758 23.4432 67.928 22.8712 67.625 22.3864C67.3295 21.8939 66.9091 21.5114 66.3636 21.2386C65.8258 20.9659 65.1932 20.8295 64.4659 20.8295C63.7538 20.8295 63.0947 20.9583 62.4886 21.2159C61.8826 21.4735 61.3939 21.8409 61.0227 22.3182C60.6515 22.7879 60.4545 23.3485 60.4318 24H56.375C56.4053 22.697 56.7803 21.553 57.5 20.5682C58.2273 19.5758 59.197 18.803 60.4091 18.25C61.6212 17.6894 62.9811 17.4091 64.4886 17.4091C66.0417 17.4091 67.3902 17.7008 68.5341 18.2841C69.6856 18.8598 70.5758 19.6364 71.2045 20.6136C71.8333 21.5909 72.1477 22.6705 72.1477 23.8523C72.1553 25.1629 71.7689 26.2614 70.9886 27.1477C70.2159 28.0341 69.2008 28.6136 67.9432 28.8864V29.0682C69.5795 29.2955 70.8333 29.9015 71.7045 30.8864C72.5833 31.8636 73.0189 33.0795 73.0114 34.5341C73.0114 35.8371 72.6402 37.0038 71.8977 38.0341C71.1629 39.0568 70.1477 39.8598 68.8523 40.4432C67.5644 41.0265 66.0871 41.3182 64.4205 41.3182ZM78.804 41.25C78.1146 41.25 77.5237 41.0076 77.0312 40.5227C76.5388 40.0379 76.2964 39.447 76.304 38.75C76.2964 38.0682 76.5388 37.4848 77.0312 37C77.5237 36.5152 78.1146 36.2727 78.804 36.2727C79.4706 36.2727 80.0502 36.5152 80.5426 37C81.0426 37.4848 81.2964 38.0682 81.304 38.75C81.2964 39.2121 81.1752 39.6326 80.9403 40.0114C80.7131 40.3902 80.41 40.6932 80.0312 40.9205C79.66 41.1402 79.2509 41.25 78.804 41.25ZM93.3153 41.3182C91.8002 41.3182 90.4441 41.0341 89.2472 40.4659C88.0502 39.8902 87.0994 39.1023 86.3949 38.1023C85.6979 37.1023 85.3267 35.9583 85.2812 34.6705H89.3722C89.4479 35.625 89.8608 36.4053 90.6108 37.0114C91.3608 37.6098 92.2623 37.9091 93.3153 37.9091C94.1411 37.9091 94.8759 37.7197 95.5199 37.3409C96.1638 36.9621 96.6714 36.4356 97.0426 35.7614C97.4138 35.0871 97.5956 34.3182 97.5881 33.4545C97.5956 32.5758 97.41 31.7955 97.0312 31.1136C96.6525 30.4318 96.1335 29.8977 95.4744 29.5114C94.8153 29.1174 94.0578 28.9205 93.2017 28.9205C92.5047 28.9129 91.8191 29.0417 91.1449 29.3068C90.4706 29.572 89.9366 29.9205 89.5426 30.3523L85.7358 29.7273L86.9517 17.7273H100.452V21.25H90.4403L89.7699 27.4205H89.9062C90.3381 26.9129 90.9479 26.4924 91.7358 26.1591C92.5237 25.8182 93.3873 25.6477 94.3267 25.6477C95.7358 25.6477 96.9934 25.9811 98.0994 26.6477C99.2055 27.3068 100.077 28.2159 100.713 29.375C101.349 30.5341 101.668 31.8598 101.668 33.3523C101.668 34.8902 101.312 36.2614 100.599 37.4659C99.8949 38.6629 98.9138 39.6061 97.6562 40.2955C96.4062 40.9773 94.9593 41.3182 93.3153 41.3182ZM105.52 41V23.5455H109.452V26.5114H109.656C110.02 25.5114 110.622 24.7311 111.463 24.1705C112.304 23.6023 113.308 23.3182 114.474 23.3182C115.656 23.3182 116.652 23.6061 117.463 24.1818C118.281 24.75 118.857 25.5265 119.19 26.5114H119.372C119.759 25.5417 120.41 24.7689 121.327 24.1932C122.251 23.6098 123.346 23.3182 124.611 23.3182C126.217 23.3182 127.527 23.8258 128.543 24.8409C129.558 25.8561 130.065 27.3371 130.065 29.2841V41H125.94V29.9205C125.94 28.8371 125.652 28.0455 125.077 27.5455C124.501 27.0379 123.796 26.7841 122.963 26.7841C121.971 26.7841 121.194 27.0947 120.634 27.7159C120.08 28.3295 119.804 29.1288 119.804 30.1136V41H115.77V29.75C115.77 28.8485 115.497 28.1288 114.952 27.5909C114.414 27.053 113.709 26.7841 112.838 26.7841C112.247 26.7841 111.709 26.9356 111.224 27.2386C110.74 27.5341 110.353 27.9545 110.065 28.5C109.777 29.0379 109.634 29.6667 109.634 30.3864V41H105.52ZM134.239 41V23.5455H138.17V26.5114H138.375C138.739 25.5114 139.341 24.7311 140.182 24.1705C141.023 23.6023 142.027 23.3182 143.193 23.3182C144.375 23.3182 145.371 23.6061 146.182 24.1818C147 24.75 147.576 25.5265 147.909 26.5114H148.091C148.477 25.5417 149.129 24.7689 150.045 24.1932C150.97 23.6098 152.064 23.3182 153.33 23.3182C154.936 23.3182 156.246 23.8258 157.261 24.8409C158.277 25.8561 158.784 27.3371 158.784 29.2841V41H154.659V29.9205C154.659 28.8371 154.371 28.0455 153.795 27.5455C153.22 27.0379 152.515 26.7841 151.682 26.7841C150.689 26.7841 149.913 27.0947 149.352 27.7159C148.799 28.3295 148.523 29.1288 148.523 30.1136V41H144.489V29.75C144.489 28.8485 144.216 28.1288 143.67 27.5909C143.133 27.053 142.428 26.7841 141.557 26.7841C140.966 26.7841 140.428 26.9356 139.943 27.2386C139.458 27.5341 139.072 27.9545 138.784 28.5C138.496 29.0379 138.352 29.6667 138.352 30.3864V41H134.239Z" fill="white"/>
<g filter="url(#filter0_i_23_26)">
<ellipse cx="12.8742" cy="32.5" rx="9.7492" ry="28.125" fill="#D9D9D9"/>
</g>
<defs>
<filter id="filter0_i_23_26" x="3.125" y="4.375" width="23.4984" height="56.25" filterUnits="userSpaceOnUse" color-interpolation-filters="sRGB">
<feFlood flood-opacity="0" result="BackgroundImageFix"/>
<feBlend mode="normal" in="SourceGraphic" in2="BackgroundImageFix" result="shape"/>
<feColorMatrix in="SourceAlpha" type="matrix" values="0 0 0 0 0 0 0 0 0 0 0 0 0 0 0 0 0 0 127 0" result="hardAlpha"/>
<feMorphology radius="3" operator="erode" in="SourceAlpha" result="effect1_innerShadow_23_26"/>
<feOffset dx="4"/>
<feGaussianBlur stdDeviation="5"/>
<feComposite in2="hardAlpha" operator="arithmetic" k2="-1" k3="1"/>
<feColorMatrix type="matrix" values="0 0 0 0 0 0 0 0 0 0 0 0 0 0 0 0 0 0 0.25 0"/>
<feBlend mode="normal" in2="shape" result="effect1_innerShadow_23_26"/>
</filter>
</defs>
</svg>
