<svg width="346" height="91" viewBox="0 0 346 91" fill="none" xmlns="http://www.w3.org/2000/svg">
<rect width="19.25" height="91" fill="black"/>
<rect width="19.25" height="91" fill="black" fill-opacity="0.2"/>
<path d="M19.25 7H255.25C256.355 7 257.25 7.89543 257.25 9V82C257.25 83.1046 256.355 84 255.25 84H19.25V7Z" fill="black"/>
<path d="M257.25 10.5H272C272.552 10.5 273 10.9477 273 11.5V79.5C273 80.0523 272.552 80.5 272 80.5H257.25V10.5Z" fill="black"/>
<path d="M344.303 45.1103L305.326 11.6464C305.001 11.368 304.5 11.5984 304.5 12.0258V78.1169C304.5 78.5413 304.995 78.7727 305.321 78.5003L344.298 45.873C344.535 45.6748 344.537 45.3114 344.303 45.1103Z" fill="black" stroke="black" stroke-width="2"/>
<path d="M304.5 76.125V14L301 21L294.875 25.375L287.875 27.125L280 24.5L271.25 18.375V72.625L280 65.625L287.875 63.875L294.875 65.625L300.125 69.125L304.5 76.125Z" fill="black" stroke="black"/>
<path d="M304.938 10.4125C306.146 10.4125 307.139 11.3957 306.988 12.5943C306.779 14.2464 306.333 15.8672 305.66 17.4109C304.692 19.6296 303.274 21.6456 301.487 23.3438C299.699 25.0419 297.577 26.389 295.242 27.308C292.906 28.227 290.403 28.7 287.875 28.7C285.347 28.7 282.844 28.227 280.508 27.308C278.173 26.389 276.051 25.0419 274.263 23.3438C272.476 21.6456 271.058 19.6296 270.09 17.4109C269.412 15.8557 268.965 14.2222 268.758 12.5573C268.611 11.3788 269.588 10.4125 270.775 10.4125C271.963 10.4125 272.908 11.3812 273.096 12.5537C273.277 13.682 273.602 14.7881 274.063 15.8474C274.815 17.5705 275.916 19.1361 277.304 20.4549C278.692 21.7737 280.34 22.8198 282.154 23.5336C283.968 24.2473 285.912 24.5 287.875 24.5C289.838 24.5 291.782 24.2473 293.596 23.5336C295.41 22.8198 297.058 21.7737 298.446 20.4549C299.834 19.1362 300.935 17.5705 301.687 15.8474C302.143 14.8004 302.437 13.7077 302.598 12.5929C302.771 11.3971 303.729 10.4125 304.938 10.4125Z" fill="black"/>
<path d="M270.812 79.7999C269.604 79.7999 268.611 78.8168 268.762 77.6182C268.971 75.966 269.417 74.3453 270.09 72.8016C271.058 70.5829 272.476 68.5669 274.263 66.8687C276.051 65.1706 278.173 63.8235 280.508 62.9045C282.844 61.9854 285.347 61.5124 287.875 61.5124C290.403 61.5124 292.906 61.9854 295.242 62.9045C297.577 63.8235 299.699 65.1706 301.487 66.8687C303.274 68.5669 304.692 70.5829 305.66 72.8016C306.338 74.3568 306.785 75.9902 306.992 77.6552C307.139 78.8336 306.162 79.7999 304.975 79.7999C303.787 79.7999 302.842 78.8313 302.654 77.6588C302.473 76.5304 302.148 75.4243 301.687 74.365C300.935 72.6419 299.834 71.0763 298.446 69.7575C297.058 68.4387 295.41 67.3926 293.596 66.6789C291.782 65.9652 289.838 65.7124 287.875 65.7124C285.912 65.7124 283.968 65.9652 282.154 66.6789C280.34 67.3926 278.692 68.4387 277.304 69.7575C275.916 71.0763 274.815 72.6419 274.063 74.365C273.607 75.4121 273.313 76.5048 273.152 77.6196C272.979 78.8153 272.021 79.7999 270.812 79.7999Z" fill="black"/>
<rect x="211.75" y="7" width="12.25" height="77" fill="#8D8D8D"/>
<path d="M260.75 10.5H269.5V80.5H260.75V10.5Z" fill="#8D8D8D"/>
<rect x="120.75" y="7" width="12.25" height="77" fill="#8D8D8D"/>
<rect x="166.25" y="7" width="12.25" height="77" fill="#8D8D8D"/>
</svg>
