<svg width="178" height="44" viewBox="0 0 178 44" fill="none" xmlns="http://www.w3.org/2000/svg">
<path d="M68 22L150.5 2.94744V41.0526L68 22Z" fill="black"/>
<rect width="8" height="44" fill="black"/>
<rect width="8" height="44" fill="black" fill-opacity="0.2"/>
<rect x="4" y="4" width="121" height="36" rx="1" fill="black"/>
<rect x="115" y="4" width="6" height="36" fill="#8D8D8D"/>
<rect x="82" y="4" width="6" height="36" fill="#8D8D8D"/>
<path d="M150 3.1547C151.238 2.44017 152.762 2.44017 154 3.1547L167.321 10.8453C168.558 11.5598 169.321 12.8803 169.321 14.3094V29.6906C169.321 31.1197 168.558 32.4402 167.321 33.1547L154 40.8453C152.762 41.5598 151.238 41.5598 150 40.8453L136.679 33.1547C135.442 32.4402 134.679 31.1197 134.679 29.6906V14.3094C134.679 12.8803 135.442 11.5598 136.679 10.8453L150 3.1547Z" fill="black"/>
</svg>
